<svg version="1.1" xmlns="http://www.w3.org/2000/svg" xmlns:xlink="http://www.w3.org/1999/xlink" x="0px" y="0px" width="800" height="600" viewBox="0 0 800 600">
<g transform="translate(300, 200.00000000000003)">
<path fill="#7cbd6b" stroke="black" stroke-width="0.5" d="M40,46.2 L0,23.1 L40,0 L80,23.1 Z" />
<path fill="#5e8c4e" stroke="black" stroke-width="0.5" d="M0,23.1 L40,46.2 L40,92.4 L0,69.3 Z" />
<path fill="#4d7a3d" stroke="black" stroke-width="0.5" d="M40,46.2 L80,23.1 L80,69.3 L40,92.4 Z" />
</g>
<g transform="translate(260, 223.10000000000002)">
<path fill="#7cbd6b" stroke="black" stroke-width="0.5" d="M40,46.2 L0,23.1 L40,0 L80,23.1 Z" />
<path fill="#5e8c4e" stroke="black" stroke-width="0.5" d="M0,23.1 L40,46.2 L40,92.4 L0,69.3 Z" />
<path fill="#4d7a3d" stroke="black" stroke-width="0.5" d="M40,46.2 L80,23.1 L80,69.3 L40,92.4 Z" />
</g>
<g transform="translate(220, 246.20000000000005)">
<path fill="#7cbd6b" stroke="black" stroke-width="0.5" d="M40,46.2 L0,23.1 L40,0 L80,23.1 Z" />
<path fill="#5e8c4e" stroke="black" stroke-width="0.5" d="M0,23.1 L40,46.2 L40,92.4 L0,69.3 Z" />
<path fill="#4d7a3d" stroke="black" stroke-width="0.5" d="M40,46.2 L80,23.1 L80,69.3 L40,92.4 Z" />
</g>
<g transform="translate(180, 269.30000000000007)">
<path fill="#7cbd6b" stroke="black" stroke-width="0.5" d="M40,46.2 L0,23.1 L40,0 L80,23.1 Z" />
<path fill="#5e8c4e" stroke="black" stroke-width="0.5" d="M0,23.1 L40,46.2 L40,92.4 L0,69.3 Z" />
<path fill="#4d7a3d" stroke="black" stroke-width="0.5" d="M40,46.2 L80,23.1 L80,69.3 L40,92.4 Z" />
</g>
<g transform="translate(140, 292.40000000000003)">
<path fill="#7cbd6b" stroke="black" stroke-width="0.5" d="M40,46.2 L0,23.1 L40,0 L80,23.1 Z" />
<path fill="#5e8c4e" stroke="black" stroke-width="0.5" d="M0,23.1 L40,46.2 L40,92.4 L0,69.3 Z" />
<path fill="#4d7a3d" stroke="black" stroke-width="0.5" d="M40,46.2 L80,23.1 L80,69.3 L40,92.4 Z" />
</g>
<g transform="translate(100, 315.50000000000006)">
<path fill="#7cbd6b" stroke="black" stroke-width="0.5" d="M40,46.2 L0,23.1 L40,0 L80,23.1 Z" />
<path fill="#5e8c4e" stroke="black" stroke-width="0.5" d="M0,23.1 L40,46.2 L40,92.4 L0,69.3 Z" />
<path fill="#4d7a3d" stroke="black" stroke-width="0.5" d="M40,46.2 L80,23.1 L80,69.3 L40,92.4 Z" />
</g>
<g transform="translate(60, 338.6)">
<path fill="#7cbd6b" stroke="black" stroke-width="0.5" d="M40,46.2 L0,23.1 L40,0 L80,23.1 Z" />
<path fill="#5e8c4e" stroke="black" stroke-width="0.5" d="M0,23.1 L40,46.2 L40,92.4 L0,69.3 Z" />
<path fill="#4d7a3d" stroke="black" stroke-width="0.5" d="M40,46.2 L80,23.1 L80,69.3 L40,92.4 Z" />
</g>
<g transform="translate(20, 361.70000000000005)">
<path fill="#7cbd6b" stroke="black" stroke-width="0.5" d="M40,46.2 L0,23.1 L40,0 L80,23.1 Z" />
<path fill="#5e8c4e" stroke="black" stroke-width="0.5" d="M0,23.1 L40,46.2 L40,92.4 L0,69.3 Z" />
<path fill="#4d7a3d" stroke="black" stroke-width="0.5" d="M40,46.2 L80,23.1 L80,69.3 L40,92.4 Z" />
</g>
<g transform="translate(340, 223.10000000000002)">
<path fill="#7cbd6b" stroke="black" stroke-width="0.5" d="M40,46.2 L0,23.1 L40,0 L80,23.1 Z" />
<path fill="#5e8c4e" stroke="black" stroke-width="0.5" d="M0,23.1 L40,46.2 L40,92.4 L0,69.3 Z" />
<path fill="#4d7a3d" stroke="black" stroke-width="0.5" d="M40,46.2 L80,23.1 L80,69.3 L40,92.4 Z" />
</g>
<g transform="translate(300, 246.20000000000002)">
<path fill="#7cbd6b" stroke="black" stroke-width="0.5" d="M40,46.2 L0,23.1 L40,0 L80,23.1 Z" />
<path fill="#5e8c4e" stroke="black" stroke-width="0.5" d="M0,23.1 L40,46.2 L40,92.4 L0,69.3 Z" />
<path fill="#4d7a3d" stroke="black" stroke-width="0.5" d="M40,46.2 L80,23.1 L80,69.3 L40,92.4 Z" />
</g>
<g transform="translate(260, 269.30000000000007)">
<path fill="#7cbd6b" stroke="black" stroke-width="0.5" d="M40,46.2 L0,23.1 L40,0 L80,23.1 Z" />
<path fill="#5e8c4e" stroke="black" stroke-width="0.5" d="M0,23.1 L40,46.2 L40,92.4 L0,69.3 Z" />
<path fill="#4d7a3d" stroke="black" stroke-width="0.5" d="M40,46.2 L80,23.1 L80,69.3 L40,92.4 Z" />
</g>
<g transform="translate(220, 292.40000000000003)">
<path fill="#7cbd6b" stroke="black" stroke-width="0.5" d="M40,46.2 L0,23.1 L40,0 L80,23.1 Z" />
<path fill="#5e8c4e" stroke="black" stroke-width="0.5" d="M0,23.1 L40,46.2 L40,92.4 L0,69.3 Z" />
<path fill="#4d7a3d" stroke="black" stroke-width="0.5" d="M40,46.2 L80,23.1 L80,69.3 L40,92.4 Z" />
</g>
<g transform="translate(180, 315.50000000000006)">
<path fill="#7cbd6b" stroke="black" stroke-width="0.5" d="M40,46.2 L0,23.1 L40,0 L80,23.1 Z" />
<path fill="#5e8c4e" stroke="black" stroke-width="0.5" d="M0,23.1 L40,46.2 L40,92.4 L0,69.3 Z" />
<path fill="#4d7a3d" stroke="black" stroke-width="0.5" d="M40,46.2 L80,23.1 L80,69.3 L40,92.4 Z" />
</g>
<g transform="translate(140, 338.6)">
<path fill="#7cbd6b" stroke="black" stroke-width="0.5" d="M40,46.2 L0,23.1 L40,0 L80,23.1 Z" />
<path fill="#5e8c4e" stroke="black" stroke-width="0.5" d="M0,23.1 L40,46.2 L40,92.4 L0,69.3 Z" />
<path fill="#4d7a3d" stroke="black" stroke-width="0.5" d="M40,46.2 L80,23.1 L80,69.3 L40,92.4 Z" />
</g>
<g transform="translate(100, 361.70000000000005)">
<path fill="#7cbd6b" stroke="black" stroke-width="0.5" d="M40,46.2 L0,23.1 L40,0 L80,23.1 Z" />
<path fill="#5e8c4e" stroke="black" stroke-width="0.5" d="M0,23.1 L40,46.2 L40,92.4 L0,69.3 Z" />
<path fill="#4d7a3d" stroke="black" stroke-width="0.5" d="M40,46.2 L80,23.1 L80,69.3 L40,92.4 Z" />
</g>
<g transform="translate(60, 384.80000000000007)">
<path fill="#7cbd6b" stroke="black" stroke-width="0.5" d="M40,46.2 L0,23.1 L40,0 L80,23.1 Z" />
<path fill="#5e8c4e" stroke="black" stroke-width="0.5" d="M0,23.1 L40,46.2 L40,92.4 L0,69.3 Z" />
<path fill="#4d7a3d" stroke="black" stroke-width="0.5" d="M40,46.2 L80,23.1 L80,69.3 L40,92.4 Z" />
</g>
<g transform="translate(380, 246.20000000000005)">
<path fill="#7cbd6b" stroke="black" stroke-width="0.5" d="M40,46.2 L0,23.1 L40,0 L80,23.1 Z" />
<path fill="#5e8c4e" stroke="black" stroke-width="0.5" d="M0,23.1 L40,46.2 L40,92.4 L0,69.3 Z" />
<path fill="#4d7a3d" stroke="black" stroke-width="0.5" d="M40,46.2 L80,23.1 L80,69.3 L40,92.4 Z" />
</g>
<g transform="translate(340, 269.3)">
<path fill="#7cbd6b" stroke="black" stroke-width="0.5" d="M40,46.2 L0,23.1 L40,0 L80,23.1 Z" />
<path fill="#5e8c4e" stroke="black" stroke-width="0.5" d="M0,23.1 L40,46.2 L40,92.4 L0,69.3 Z" />
<path fill="#4d7a3d" stroke="black" stroke-width="0.5" d="M40,46.2 L80,23.1 L80,69.3 L40,92.4 Z" />
</g>
<g transform="translate(300, 292.40000000000003)">
<path fill="#7cbd6b" stroke="black" stroke-width="0.5" d="M40,46.2 L0,23.1 L40,0 L80,23.1 Z" />
<path fill="#5e8c4e" stroke="black" stroke-width="0.5" d="M0,23.1 L40,46.2 L40,92.4 L0,69.3 Z" />
<path fill="#4d7a3d" stroke="black" stroke-width="0.5" d="M40,46.2 L80,23.1 L80,69.3 L40,92.4 Z" />
</g>
<g transform="translate(260, 315.50000000000006)">
<path fill="#7cbd6b" stroke="black" stroke-width="0.5" d="M40,46.2 L0,23.1 L40,0 L80,23.1 Z" />
<path fill="#5e8c4e" stroke="black" stroke-width="0.5" d="M0,23.1 L40,46.2 L40,92.4 L0,69.3 Z" />
<path fill="#4d7a3d" stroke="black" stroke-width="0.5" d="M40,46.2 L80,23.1 L80,69.3 L40,92.4 Z" />
</g>
<g transform="translate(220, 338.6)">
<path fill="#7cbd6b" stroke="black" stroke-width="0.5" d="M40,46.2 L0,23.1 L40,0 L80,23.1 Z" />
<path fill="#5e8c4e" stroke="black" stroke-width="0.5" d="M0,23.1 L40,46.2 L40,92.4 L0,69.3 Z" />
<path fill="#4d7a3d" stroke="black" stroke-width="0.5" d="M40,46.2 L80,23.1 L80,69.3 L40,92.4 Z" />
</g>
<g transform="translate(180, 361.70000000000005)">
<path fill="#7cbd6b" stroke="black" stroke-width="0.5" d="M40,46.2 L0,23.1 L40,0 L80,23.1 Z" />
<path fill="#5e8c4e" stroke="black" stroke-width="0.5" d="M0,23.1 L40,46.2 L40,92.4 L0,69.3 Z" />
<path fill="#4d7a3d" stroke="black" stroke-width="0.5" d="M40,46.2 L80,23.1 L80,69.3 L40,92.4 Z" />
</g>
<g transform="translate(140, 384.80000000000007)">
<path fill="#7cbd6b" stroke="black" stroke-width="0.5" d="M40,46.2 L0,23.1 L40,0 L80,23.1 Z" />
<path fill="#5e8c4e" stroke="black" stroke-width="0.5" d="M0,23.1 L40,46.2 L40,92.4 L0,69.3 Z" />
<path fill="#4d7a3d" stroke="black" stroke-width="0.5" d="M40,46.2 L80,23.1 L80,69.3 L40,92.4 Z" />
</g>
<g transform="translate(100, 407.90000000000003)">
<path fill="#7cbd6b" stroke="black" stroke-width="0.5" d="M40,46.2 L0,23.1 L40,0 L80,23.1 Z" />
<path fill="#5e8c4e" stroke="black" stroke-width="0.5" d="M0,23.1 L40,46.2 L40,92.4 L0,69.3 Z" />
<path fill="#4d7a3d" stroke="black" stroke-width="0.5" d="M40,46.2 L80,23.1 L80,69.3 L40,92.4 Z" />
</g>
<g transform="translate(420, 269.30000000000007)">
<path fill="#7cbd6b" stroke="black" stroke-width="0.5" d="M40,46.2 L0,23.1 L40,0 L80,23.1 Z" />
<path fill="#5e8c4e" stroke="black" stroke-width="0.5" d="M0,23.1 L40,46.2 L40,92.4 L0,69.3 Z" />
<path fill="#4d7a3d" stroke="black" stroke-width="0.5" d="M40,46.2 L80,23.1 L80,69.3 L40,92.4 Z" />
</g>
<g transform="translate(380, 292.40000000000003)">
<path fill="#7cbd6b" stroke="black" stroke-width="0.5" d="M40,46.2 L0,23.1 L40,0 L80,23.1 Z" />
<path fill="#5e8c4e" stroke="black" stroke-width="0.5" d="M0,23.1 L40,46.2 L40,92.4 L0,69.3 Z" />
<path fill="#4d7a3d" stroke="black" stroke-width="0.5" d="M40,46.2 L80,23.1 L80,69.3 L40,92.4 Z" />
</g>
<g transform="translate(340, 315.50000000000006)">
<path fill="#7cbd6b" stroke="black" stroke-width="0.5" d="M40,46.2 L0,23.1 L40,0 L80,23.1 Z" />
<path fill="#5e8c4e" stroke="black" stroke-width="0.5" d="M0,23.1 L40,46.2 L40,92.4 L0,69.3 Z" />
<path fill="#4d7a3d" stroke="black" stroke-width="0.5" d="M40,46.2 L80,23.1 L80,69.3 L40,92.4 Z" />
</g>
<g transform="translate(300, 338.6)">
<path fill="#7cbd6b" stroke="black" stroke-width="0.5" d="M40,46.2 L0,23.1 L40,0 L80,23.1 Z" />
<path fill="#5e8c4e" stroke="black" stroke-width="0.5" d="M0,23.1 L40,46.2 L40,92.4 L0,69.3 Z" />
<path fill="#4d7a3d" stroke="black" stroke-width="0.5" d="M40,46.2 L80,23.1 L80,69.3 L40,92.4 Z" />
</g>
<g transform="translate(260, 361.70000000000005)">
<path fill="#7cbd6b" stroke="black" stroke-width="0.5" d="M40,46.2 L0,23.1 L40,0 L80,23.1 Z" />
<path fill="#5e8c4e" stroke="black" stroke-width="0.5" d="M0,23.1 L40,46.2 L40,92.4 L0,69.3 Z" />
<path fill="#4d7a3d" stroke="black" stroke-width="0.5" d="M40,46.2 L80,23.1 L80,69.3 L40,92.4 Z" />
</g>
<g transform="translate(220, 384.80000000000007)">
<path fill="#7cbd6b" stroke="black" stroke-width="0.5" d="M40,46.2 L0,23.1 L40,0 L80,23.1 Z" />
<path fill="#5e8c4e" stroke="black" stroke-width="0.5" d="M0,23.1 L40,46.2 L40,92.4 L0,69.3 Z" />
<path fill="#4d7a3d" stroke="black" stroke-width="0.5" d="M40,46.2 L80,23.1 L80,69.3 L40,92.4 Z" />
</g>
<g transform="translate(180, 407.90000000000003)">
<path fill="#7cbd6b" stroke="black" stroke-width="0.5" d="M40,46.2 L0,23.1 L40,0 L80,23.1 Z" />
<path fill="#5e8c4e" stroke="black" stroke-width="0.5" d="M0,23.1 L40,46.2 L40,92.4 L0,69.3 Z" />
<path fill="#4d7a3d" stroke="black" stroke-width="0.5" d="M40,46.2 L80,23.1 L80,69.3 L40,92.4 Z" />
</g>
<g transform="translate(140, 431.00000000000006)">
<path fill="#7cbd6b" stroke="black" stroke-width="0.5" d="M40,46.2 L0,23.1 L40,0 L80,23.1 Z" />
<path fill="#5e8c4e" stroke="black" stroke-width="0.5" d="M0,23.1 L40,46.2 L40,92.4 L0,69.3 Z" />
<path fill="#4d7a3d" stroke="black" stroke-width="0.5" d="M40,46.2 L80,23.1 L80,69.3 L40,92.4 Z" />
</g>
<g transform="translate(460, 292.40000000000003)">
<path fill="#7cbd6b" stroke="black" stroke-width="0.5" d="M40,46.2 L0,23.1 L40,0 L80,23.1 Z" />
<path fill="#5e8c4e" stroke="black" stroke-width="0.5" d="M0,23.1 L40,46.2 L40,92.4 L0,69.3 Z" />
<path fill="#4d7a3d" stroke="black" stroke-width="0.5" d="M40,46.2 L80,23.1 L80,69.3 L40,92.4 Z" />
</g>
<g transform="translate(420, 315.5)">
<path fill="#7cbd6b" stroke="black" stroke-width="0.5" d="M40,46.2 L0,23.1 L40,0 L80,23.1 Z" />
<path fill="#5e8c4e" stroke="black" stroke-width="0.5" d="M0,23.1 L40,46.2 L40,92.4 L0,69.3 Z" />
<path fill="#4d7a3d" stroke="black" stroke-width="0.5" d="M40,46.2 L80,23.1 L80,69.3 L40,92.4 Z" />
</g>
<g transform="translate(380, 338.6)">
<path fill="#7cbd6b" stroke="black" stroke-width="0.5" d="M40,46.2 L0,23.1 L40,0 L80,23.1 Z" />
<path fill="#5e8c4e" stroke="black" stroke-width="0.5" d="M0,23.1 L40,46.2 L40,92.4 L0,69.3 Z" />
<path fill="#4d7a3d" stroke="black" stroke-width="0.5" d="M40,46.2 L80,23.1 L80,69.3 L40,92.4 Z" />
</g>
<g transform="translate(340, 361.70000000000005)">
<path fill="#7cbd6b" stroke="black" stroke-width="0.5" d="M40,46.2 L0,23.1 L40,0 L80,23.1 Z" />
<path fill="#5e8c4e" stroke="black" stroke-width="0.5" d="M0,23.1 L40,46.2 L40,92.4 L0,69.3 Z" />
<path fill="#4d7a3d" stroke="black" stroke-width="0.5" d="M40,46.2 L80,23.1 L80,69.3 L40,92.4 Z" />
</g>
<g transform="translate(300, 384.80000000000007)">
<path fill="#7cbd6b" stroke="black" stroke-width="0.5" d="M40,46.2 L0,23.1 L40,0 L80,23.1 Z" />
<path fill="#5e8c4e" stroke="black" stroke-width="0.5" d="M0,23.1 L40,46.2 L40,92.4 L0,69.3 Z" />
<path fill="#4d7a3d" stroke="black" stroke-width="0.5" d="M40,46.2 L80,23.1 L80,69.3 L40,92.4 Z" />
</g>
<g transform="translate(260, 407.90000000000003)">
<path fill="#7cbd6b" stroke="black" stroke-width="0.5" d="M40,46.2 L0,23.1 L40,0 L80,23.1 Z" />
<path fill="#5e8c4e" stroke="black" stroke-width="0.5" d="M0,23.1 L40,46.2 L40,92.4 L0,69.3 Z" />
<path fill="#4d7a3d" stroke="black" stroke-width="0.5" d="M40,46.2 L80,23.1 L80,69.3 L40,92.4 Z" />
</g>
<g transform="translate(220, 431.00000000000006)">
<path fill="#7cbd6b" stroke="black" stroke-width="0.5" d="M40,46.2 L0,23.1 L40,0 L80,23.1 Z" />
<path fill="#5e8c4e" stroke="black" stroke-width="0.5" d="M0,23.1 L40,46.2 L40,92.4 L0,69.3 Z" />
<path fill="#4d7a3d" stroke="black" stroke-width="0.5" d="M40,46.2 L80,23.1 L80,69.3 L40,92.4 Z" />
</g>
<g transform="translate(180, 454.1)">
<path fill="#7cbd6b" stroke="black" stroke-width="0.5" d="M40,46.2 L0,23.1 L40,0 L80,23.1 Z" />
<path fill="#5e8c4e" stroke="black" stroke-width="0.5" d="M0,23.1 L40,46.2 L40,92.4 L0,69.3 Z" />
<path fill="#4d7a3d" stroke="black" stroke-width="0.5" d="M40,46.2 L80,23.1 L80,69.3 L40,92.4 Z" />
</g>
<g transform="translate(500, 315.5)">
<path fill="#7cbd6b" stroke="black" stroke-width="0.5" d="M40,46.2 L0,23.1 L40,0 L80,23.1 Z" />
<path fill="#5e8c4e" stroke="black" stroke-width="0.5" d="M0,23.1 L40,46.2 L40,92.4 L0,69.3 Z" />
<path fill="#4d7a3d" stroke="black" stroke-width="0.5" d="M40,46.2 L80,23.1 L80,69.3 L40,92.4 Z" />
</g>
<g transform="translate(460, 338.6)">
<path fill="#7cbd6b" stroke="black" stroke-width="0.5" d="M40,46.2 L0,23.1 L40,0 L80,23.1 Z" />
<path fill="#5e8c4e" stroke="black" stroke-width="0.5" d="M0,23.1 L40,46.2 L40,92.4 L0,69.3 Z" />
<path fill="#4d7a3d" stroke="black" stroke-width="0.5" d="M40,46.2 L80,23.1 L80,69.3 L40,92.4 Z" />
</g>
<g transform="translate(420, 361.70000000000005)">
<path fill="#7cbd6b" stroke="black" stroke-width="0.5" d="M40,46.2 L0,23.1 L40,0 L80,23.1 Z" />
<path fill="#5e8c4e" stroke="black" stroke-width="0.5" d="M0,23.1 L40,46.2 L40,92.4 L0,69.3 Z" />
<path fill="#4d7a3d" stroke="black" stroke-width="0.5" d="M40,46.2 L80,23.1 L80,69.3 L40,92.4 Z" />
</g>
<g transform="translate(380, 384.80000000000007)">
<path fill="#7cbd6b" stroke="black" stroke-width="0.5" d="M40,46.2 L0,23.1 L40,0 L80,23.1 Z" />
<path fill="#5e8c4e" stroke="black" stroke-width="0.5" d="M0,23.1 L40,46.2 L40,92.4 L0,69.3 Z" />
<path fill="#4d7a3d" stroke="black" stroke-width="0.5" d="M40,46.2 L80,23.1 L80,69.3 L40,92.4 Z" />
</g>
<g transform="translate(340, 407.90000000000003)">
<path fill="#7cbd6b" stroke="black" stroke-width="0.5" d="M40,46.2 L0,23.1 L40,0 L80,23.1 Z" />
<path fill="#5e8c4e" stroke="black" stroke-width="0.5" d="M0,23.1 L40,46.2 L40,92.4 L0,69.3 Z" />
<path fill="#4d7a3d" stroke="black" stroke-width="0.5" d="M40,46.2 L80,23.1 L80,69.3 L40,92.4 Z" />
</g>
<g transform="translate(300, 431.00000000000006)">
<path fill="#7cbd6b" stroke="black" stroke-width="0.5" d="M40,46.2 L0,23.1 L40,0 L80,23.1 Z" />
<path fill="#5e8c4e" stroke="black" stroke-width="0.5" d="M0,23.1 L40,46.2 L40,92.4 L0,69.3 Z" />
<path fill="#4d7a3d" stroke="black" stroke-width="0.5" d="M40,46.2 L80,23.1 L80,69.3 L40,92.4 Z" />
</g>
<g transform="translate(260, 454.1)">
<path fill="#7cbd6b" stroke="black" stroke-width="0.5" d="M40,46.2 L0,23.1 L40,0 L80,23.1 Z" />
<path fill="#5e8c4e" stroke="black" stroke-width="0.5" d="M0,23.1 L40,46.2 L40,92.4 L0,69.3 Z" />
<path fill="#4d7a3d" stroke="black" stroke-width="0.5" d="M40,46.2 L80,23.1 L80,69.3 L40,92.4 Z" />
</g>
<g transform="translate(220, 477.20000000000005)">
<path fill="#7cbd6b" stroke="black" stroke-width="0.5" d="M40,46.2 L0,23.1 L40,0 L80,23.1 Z" />
<path fill="#5e8c4e" stroke="black" stroke-width="0.5" d="M0,23.1 L40,46.2 L40,92.4 L0,69.3 Z" />
<path fill="#4d7a3d" stroke="black" stroke-width="0.5" d="M40,46.2 L80,23.1 L80,69.3 L40,92.4 Z" />
</g>
<g transform="translate(540, 338.6)">
<path fill="#7cbd6b" stroke="black" stroke-width="0.5" d="M40,46.2 L0,23.1 L40,0 L80,23.1 Z" />
<path fill="#5e8c4e" stroke="black" stroke-width="0.5" d="M0,23.1 L40,46.2 L40,92.4 L0,69.3 Z" />
<path fill="#4d7a3d" stroke="black" stroke-width="0.5" d="M40,46.2 L80,23.1 L80,69.3 L40,92.4 Z" />
</g>
<g transform="translate(500, 361.70000000000005)">
<path fill="#7cbd6b" stroke="black" stroke-width="0.5" d="M40,46.2 L0,23.1 L40,0 L80,23.1 Z" />
<path fill="#5e8c4e" stroke="black" stroke-width="0.5" d="M0,23.1 L40,46.2 L40,92.4 L0,69.3 Z" />
<path fill="#4d7a3d" stroke="black" stroke-width="0.5" d="M40,46.2 L80,23.1 L80,69.3 L40,92.4 Z" />
</g>
<g transform="translate(460, 384.80000000000007)">
<path fill="#7cbd6b" stroke="black" stroke-width="0.5" d="M40,46.2 L0,23.1 L40,0 L80,23.1 Z" />
<path fill="#5e8c4e" stroke="black" stroke-width="0.5" d="M0,23.1 L40,46.2 L40,92.4 L0,69.3 Z" />
<path fill="#4d7a3d" stroke="black" stroke-width="0.5" d="M40,46.2 L80,23.1 L80,69.3 L40,92.4 Z" />
</g>
<g transform="translate(420, 407.9000000000001)">
<path fill="#7cbd6b" stroke="black" stroke-width="0.5" d="M40,46.2 L0,23.1 L40,0 L80,23.1 Z" />
<path fill="#5e8c4e" stroke="black" stroke-width="0.5" d="M0,23.1 L40,46.2 L40,92.4 L0,69.3 Z" />
<path fill="#4d7a3d" stroke="black" stroke-width="0.5" d="M40,46.2 L80,23.1 L80,69.3 L40,92.4 Z" />
</g>
<g transform="translate(380, 431.00000000000006)">
<path fill="#7cbd6b" stroke="black" stroke-width="0.5" d="M40,46.2 L0,23.1 L40,0 L80,23.1 Z" />
<path fill="#5e8c4e" stroke="black" stroke-width="0.5" d="M0,23.1 L40,46.2 L40,92.4 L0,69.3 Z" />
<path fill="#4d7a3d" stroke="black" stroke-width="0.5" d="M40,46.2 L80,23.1 L80,69.3 L40,92.4 Z" />
</g>
<g transform="translate(340, 454.1000000000001)">
<path fill="#7cbd6b" stroke="black" stroke-width="0.5" d="M40,46.2 L0,23.1 L40,0 L80,23.1 Z" />
<path fill="#5e8c4e" stroke="black" stroke-width="0.5" d="M0,23.1 L40,46.2 L40,92.4 L0,69.3 Z" />
<path fill="#4d7a3d" stroke="black" stroke-width="0.5" d="M40,46.2 L80,23.1 L80,69.3 L40,92.4 Z" />
</g>
<g transform="translate(300, 477.20000000000005)">
<path fill="#7cbd6b" stroke="black" stroke-width="0.5" d="M40,46.2 L0,23.1 L40,0 L80,23.1 Z" />
<path fill="#5e8c4e" stroke="black" stroke-width="0.5" d="M0,23.1 L40,46.2 L40,92.4 L0,69.3 Z" />
<path fill="#4d7a3d" stroke="black" stroke-width="0.5" d="M40,46.2 L80,23.1 L80,69.3 L40,92.4 Z" />
</g>
<g transform="translate(260, 500.30000000000007)">
<path fill="#7cbd6b" stroke="black" stroke-width="0.5" d="M40,46.2 L0,23.1 L40,0 L80,23.1 Z" />
<path fill="#5e8c4e" stroke="black" stroke-width="0.5" d="M0,23.1 L40,46.2 L40,92.4 L0,69.3 Z" />
<path fill="#4d7a3d" stroke="black" stroke-width="0.5" d="M40,46.2 L80,23.1 L80,69.3 L40,92.4 Z" />
</g>
<g transform="translate(580, 361.70000000000005)">
<path fill="#7cbd6b" stroke="black" stroke-width="0.5" d="M40,46.2 L0,23.1 L40,0 L80,23.1 Z" />
<path fill="#5e8c4e" stroke="black" stroke-width="0.5" d="M0,23.1 L40,46.2 L40,92.4 L0,69.3 Z" />
<path fill="#4d7a3d" stroke="black" stroke-width="0.5" d="M40,46.2 L80,23.1 L80,69.3 L40,92.4 Z" />
</g>
<g transform="translate(540, 384.80000000000007)">
<path fill="#7cbd6b" stroke="black" stroke-width="0.5" d="M40,46.2 L0,23.1 L40,0 L80,23.1 Z" />
<path fill="#5e8c4e" stroke="black" stroke-width="0.5" d="M0,23.1 L40,46.2 L40,92.4 L0,69.3 Z" />
<path fill="#4d7a3d" stroke="black" stroke-width="0.5" d="M40,46.2 L80,23.1 L80,69.3 L40,92.4 Z" />
</g>
<g transform="translate(500, 407.9000000000001)">
<path fill="#7cbd6b" stroke="black" stroke-width="0.5" d="M40,46.2 L0,23.1 L40,0 L80,23.1 Z" />
<path fill="#5e8c4e" stroke="black" stroke-width="0.5" d="M0,23.1 L40,46.2 L40,92.4 L0,69.3 Z" />
<path fill="#4d7a3d" stroke="black" stroke-width="0.5" d="M40,46.2 L80,23.1 L80,69.3 L40,92.4 Z" />
</g>
<g transform="translate(460, 431.00000000000006)">
<path fill="#7cbd6b" stroke="black" stroke-width="0.5" d="M40,46.2 L0,23.1 L40,0 L80,23.1 Z" />
<path fill="#5e8c4e" stroke="black" stroke-width="0.5" d="M0,23.1 L40,46.2 L40,92.4 L0,69.3 Z" />
<path fill="#4d7a3d" stroke="black" stroke-width="0.5" d="M40,46.2 L80,23.1 L80,69.3 L40,92.4 Z" />
</g>
<g transform="translate(420, 454.1)">
<path fill="#7cbd6b" stroke="black" stroke-width="0.5" d="M40,46.2 L0,23.1 L40,0 L80,23.1 Z" />
<path fill="#5e8c4e" stroke="black" stroke-width="0.5" d="M0,23.1 L40,46.2 L40,92.4 L0,69.3 Z" />
<path fill="#4d7a3d" stroke="black" stroke-width="0.5" d="M40,46.2 L80,23.1 L80,69.3 L40,92.4 Z" />
</g>
<g transform="translate(380, 477.20000000000005)">
<path fill="#7cbd6b" stroke="black" stroke-width="0.5" d="M40,46.2 L0,23.1 L40,0 L80,23.1 Z" />
<path fill="#5e8c4e" stroke="black" stroke-width="0.5" d="M0,23.1 L40,46.2 L40,92.4 L0,69.3 Z" />
<path fill="#4d7a3d" stroke="black" stroke-width="0.5" d="M40,46.2 L80,23.1 L80,69.3 L40,92.4 Z" />
</g>
<g transform="translate(340, 500.30000000000007)">
<path fill="#7cbd6b" stroke="black" stroke-width="0.5" d="M40,46.2 L0,23.1 L40,0 L80,23.1 Z" />
<path fill="#5e8c4e" stroke="black" stroke-width="0.5" d="M0,23.1 L40,46.2 L40,92.4 L0,69.3 Z" />
<path fill="#4d7a3d" stroke="black" stroke-width="0.5" d="M40,46.2 L80,23.1 L80,69.3 L40,92.4 Z" />
</g>
<g transform="translate(300, 523.4000000000001)">
<path fill="#7cbd6b" stroke="black" stroke-width="0.5" d="M40,46.2 L0,23.1 L40,0 L80,23.1 Z" />
<path fill="#5e8c4e" stroke="black" stroke-width="0.5" d="M0,23.1 L40,46.2 L40,92.4 L0,69.3 Z" />
<path fill="#4d7a3d" stroke="black" stroke-width="0.5" d="M40,46.2 L80,23.1 L80,69.3 L40,92.4 Z" />
</g>
<g transform="translate(340, 315.50000000000006)">
<path fill="#a0522d" stroke="black" stroke-width="0.5" d="M40,46.2 L0,23.1 L40,0 L80,23.1 Z" />
<path fill="#8b4513" stroke="black" stroke-width="0.5" d="M0,23.1 L40,46.2 L40,92.4 L0,69.3 Z" />
<path fill="#6b4513" stroke="black" stroke-width="0.5" d="M40,46.2 L80,23.1 L80,69.3 L40,92.4 Z" />
</g>
<g transform="translate(340, 269.30000000000007)">
<path fill="#a0522d" stroke="black" stroke-width="0.5" d="M40,46.2 L0,23.1 L40,0 L80,23.1 Z" />
<path fill="#8b4513" stroke="black" stroke-width="0.5" d="M0,23.1 L40,46.2 L40,92.4 L0,69.3 Z" />
<path fill="#6b4513" stroke="black" stroke-width="0.5" d="M40,46.2 L80,23.1 L80,69.3 L40,92.4 Z" />
</g>
<g transform="translate(340, 223.10000000000002)">
<path fill="#228b22" stroke="black" stroke-width="0.5" d="M40,46.2 L0,23.1 L40,0 L80,23.1 Z" />
<path fill="#006400" stroke="black" stroke-width="0.5" d="M0,23.1 L40,46.2 L40,92.4 L0,69.3 Z" />
<path fill="#004b00" stroke="black" stroke-width="0.5" d="M40,46.2 L80,23.1 L80,69.3 L40,92.4 Z" />
</g>
<g transform="translate(300, 246.20000000000002)">
<path fill="#228b22" stroke="black" stroke-width="0.5" d="M40,46.2 L0,23.1 L40,0 L80,23.1 Z" />
<path fill="#006400" stroke="black" stroke-width="0.5" d="M0,23.1 L40,46.2 L40,92.4 L0,69.3 Z" />
<path fill="#004b00" stroke="black" stroke-width="0.5" d="M40,46.2 L80,23.1 L80,69.3 L40,92.4 Z" />
</g>
<g transform="translate(380, 200.00000000000003)">
<path fill="#228b22" stroke="black" stroke-width="0.5" d="M40,46.2 L0,23.1 L40,0 L80,23.1 Z" />
<path fill="#006400" stroke="black" stroke-width="0.5" d="M0,23.1 L40,46.2 L40,92.4 L0,69.3 Z" />
<path fill="#004b00" stroke="black" stroke-width="0.5" d="M40,46.2 L80,23.1 L80,69.3 L40,92.4 Z" />
</g>
<g transform="translate(300, 200.00000000000003)">
<path fill="#228b22" stroke="black" stroke-width="0.5" d="M40,46.2 L0,23.1 L40,0 L80,23.1 Z" />
<path fill="#006400" stroke="black" stroke-width="0.5" d="M0,23.1 L40,46.2 L40,92.4 L0,69.3 Z" />
<path fill="#004b00" stroke="black" stroke-width="0.5" d="M40,46.2 L80,23.1 L80,69.3 L40,92.4 Z" />
</g>
<g transform="translate(380, 246.20000000000002)">
<path fill="#228b22" stroke="black" stroke-width="0.5" d="M40,46.2 L0,23.1 L40,0 L80,23.1 Z" />
<path fill="#006400" stroke="black" stroke-width="0.5" d="M0,23.1 L40,46.2 L40,92.4 L0,69.3 Z" />
<path fill="#004b00" stroke="black" stroke-width="0.5" d="M40,46.2 L80,23.1 L80,69.3 L40,92.4 Z" />
</g>
</svg>
